<svg xmlns="http://www.w3.org/2000/svg" width="120" height="120" viewBox="0 0 120 120">
  <defs>
    <style>
      .cls-1 {
        fill-rule: evenodd;
      }
    </style>
  </defs>
  <g id="icon-bottle">
    <path id="bottle" class="cls-1" d="M353.686,1508.93m-15.94,12.88a52.162,52.162,0,0,0,5.249,6.81,35.808,35.808,0,0,0,6.384,5.6c3.537,2.04,8.653-1.9,8.653-1.9l-8.716-8.54s-1.39-1.34-.442-2.23,1.265-.5,1.834,0,9.2,9.26,9.2,9.26l2.373-2s-8.812-8.9-9.691-9.72c-0.761-.71.458-2.96,1.912-1.43s9.548,9.05,9.548,9.05l2.4-2.55s-8.662-8.01-9.548-9.03,0.634-2.8,1.771-1.85,9.927,9.16,9.927,9.16l2.086-2.41s-8.185-7.53-8.929-8.25a1.334,1.334,0,1,1,1.943-1.82c1.813,1.57,8.631,8.41,8.631,8.41s2.845-2.29,2.971-7.5a47.234,47.234,0,0,0-6.513-7.1c-3.286-3.22-6.891-6.08-6.891-6.08s-4.933-1.27-8.029,1.4-15.366,15.78-15.366,15.78-2.34,3.25-.758,6.68m26.177-24.16s8.6,5.52,11.38,10.74c5.881-1.72,6.259-6.87,3.8-9.93,3.731-2.48,5.185-5.85,1.769-7.57-2.023-2.67-4.742-1.59-6.954,3.12C373.913,1493.75,367.02,1487.42,363.923,1497.39Z" transform="translate(-300 -1452)"/>
  </g>
</svg>
