<svg xmlns="http://www.w3.org/2000/svg" width="120" height="120" viewBox="0 0 120 120">
  <defs>
    <style>
      .cls-1 {
        fill-rule: evenodd;
      }
    </style>
  </defs>
  <g id="icon-bodyCare">
    <path id="bodyCare" class="cls-1" d="M100.349,1320.06l0.052-.05S100.33,1320.04,100.349,1320.06Zm22.312,19.7c-0.294-5.4-9.6-12.78-14.951-16.24,0,0,.229-3.76-3.924-3.51-2.886.18-3.395,0.11-3.437,0.05-0.26.25-1.509,1.42-2.154,2.09-0.214.01-.434,0.03-0.656,0.04a25.776,25.776,0,0,0-4.793,1.16c-0.029.01-.053,0.03-0.08,0.04-0.018.15-.043,0.41-0.051,0.75-0.057,2.31.645,8.49,9.42,10.49,0.719,0.16,1.368.34,1.968,0.53,0.228,0.08.45,0.15,0.663,0.23,0.232,0.08.457,0.17,0.672,0.25a7.785,7.785,0,0,1,4.2,3.26,28.442,28.442,0,0,0-1.51-10.06,65.244,65.244,0,0,1,9.446,10.77s-3.057,3.47-8.717,1.99a8.142,8.142,0,0,1-4.469-5.04,21.3,21.3,0,0,0-2.52-.72c-6.141-1.4-8.623-4.78-9.626-7.37a11.328,11.328,0,0,1-.7-2.93,5.478,5.478,0,0,0-.041,2.89,5.063,5.063,0,0,1,.1,1.73,14.2,14.2,0,0,1-1.159,3.03,1.537,1.537,0,0,1,.317.35,3.159,3.159,0,0,1,.369,1.94,2.1,2.1,0,0,1,.769,1.36,0.284,0.284,0,0,1,0,.04c0.045,0.97.385,1.47,1.009,1.47a0.555,0.555,0,0,0,.112-0.01h0.03l4.155-.54c0.025,0,.052-0.01.078-0.01a0.622,0.622,0,0,1,.409.16s1.46,0.79,1.46,3.29a3.3,3.3,0,0,1-2.843,2.84c-2.563.32-4.9,0.21-5.946,1.9s-0.285,7.8-1.33,12.01c0,0-.7,9.35-1.553,11.74l4.652,0.12s3.024-8.55,3.031-15.28a19.749,19.749,0,0,1,2.106,10.79,16.819,16.819,0,0,1-1.718,4.53,34.207,34.207,0,0,0,10.331,1.81,71.3,71.3,0,0,1-.76-19.3,49.649,49.649,0,0,0,2.207,19.17,17.975,17.975,0,0,0,6.245-1.84,18.191,18.191,0,0,1-1.117-16.28C114.2,1348.73,122.959,1345.23,122.661,1339.76ZM97.822,1372.6c-9.67-3.78-16.74.62-19.156,4.5a68.147,68.147,0,0,1,21.506,5.35c11.515,5.28,18.154-4.11,14.384-10.75C114.555,1371.7,107.492,1376.39,97.822,1372.6Z" transform="translate(-40 -1292)"/>
  </g>
</svg>
