<svg xmlns="http://www.w3.org/2000/svg" width="120" height="120" viewBox="0 0 120 120">
  <defs>
    <style>
      .cls-1 {
        fill-rule: evenodd;
      }
    </style>
  </defs>
  <g id="icon-beauty">
    <path id="beauty" class="cls-1" d="M488.213,1029.06a0.685,0.685,0,0,1-.654.71h-12.1a0.992,0.992,0,0,1-.554-1.03l3.608-24.02a0.685,0.685,0,0,1,.655-0.71h4.685a0.686,0.686,0,0,1,.655.71Zm9.8,4.97a0.891,0.891,0,0,1,.866-0.69h10.573a1.062,1.062,0,0,1,1,.69l-3.44,24.44a0.58,0.58,0,0,1-.584.64H501.9c-0.336,0-.447-0.24-0.447-0.64Zm-7.139-.86a0.164,0.164,0,0,1-.175.15H472.415a0.166,0.166,0,0,1-.175-0.15l0.394-2.35a0.166,0.166,0,0,1,.174-0.15h17.5a0.165,0.165,0,0,1,.173.15Zm-8.985,1.05H492.3c0.739,0,3.039.04,3.039,2.78s-0.784,19.07-7.891,23.88H476.559c-1.2,0-6.737-1.32-8.767-23.37,0-1.85.821-3.29,3.066-3.29h11.03Zm21.449-16.01,1.771,0.02v16.89h-1.769Zm1.583-.87s1.014-6.74,4.618-11.61c0.188-.44-0.621-1.2-1.117-0.25s-1.805,4.36-1.805,4.36a12.194,12.194,0,0,1,1.072-4.17,0.446,0.446,0,1,0-.822-0.32,27.109,27.109,0,0,0-1.057,4.68,10.433,10.433,0,0,1,.373-4.36c0.062-.7-0.745-1.08-1.057-0.38,0,0.57-.31,4.87-0.31,4.87s-0.281-3.61-.281-4.56-0.884-.95-0.884-0.05v4.7s-0.607-4.32-.56-4.7-0.652-.94-0.979-0.42c-0.094.47,0.652,4.84,0.652,4.84s-1.166-4.37-1.259-4.65-0.978-.81-0.978.14c0.326,0.66,1.4,4.03,1.4,4.03s-1.771-3.79-2-4.22-1.259-.57-0.98.33,4.7,6.37,4.6,11.75C504.99,1017.35,504.92,1017.34,504.92,1017.34Z" transform="translate(-430 -972)"/>
  </g>
</svg>
